Coordinates
version=1
nRows=27
nColumns=12
inDegrees=yes

Units are S.I. units (second, meters, Newtons, ...)
Angles are in degrees

endheader
time	SC_y	SC_z	SC_x	AC_y	AC_z	AC_x	GH_y	GH_z	GH_yy	EL_x	PS_y
       0.0              -13.37          18.71          58.78          45.17         -16.13          2.892          90.62          6.342         -95.84          57.48          97.91
  0.002863              -13.38          18.71          58.77          45.17         -16.13          2.893          90.59          6.345         -95.82          57.47          97.92
  0.005725              -13.39          18.71          58.76          45.17         -16.13          2.894          90.56          6.349          -95.8          57.46          97.92
  0.008588              -13.39          18.71          58.75          45.16         -16.12          2.895          90.53          6.354         -95.78          57.46          97.93
   0.01145               -13.4          18.71          58.74          45.16         -16.12          2.896           90.5          6.358         -95.75          57.45          97.94
   0.01431              -13.41          18.71          58.73          45.16         -16.12          2.898          90.47          6.363         -95.73          57.44          97.95
   0.01718              -13.42          18.71          58.72          45.16         -16.11          2.899          90.43          6.368          -95.7          57.43          97.95
   0.02004              -13.43          18.71          58.71          45.16         -16.11          2.901          90.39          6.374         -95.67          57.42          97.96
    0.0229              -13.44          18.71          58.69          45.16          -16.1          2.902          90.35           6.38         -95.63          57.42          97.97
   0.02576              -13.45          18.71          58.68          45.16          -16.1          2.904           90.3          6.386          -95.6          57.41          97.98
   0.02863              -13.46          18.71          58.66          45.16          -16.1          2.906          90.25          6.393         -95.56          57.39          97.99
   0.03149              -13.47          18.71          58.65          45.16         -16.09          2.908           90.2            6.4         -95.52          57.38           98.0
   0.03435              -13.49          18.71          58.63          45.16         -16.08           2.91          90.15          6.408         -95.48          57.37          98.01
   0.03721               -13.5          18.71          58.61          45.15         -16.08          2.912          90.08          6.416         -95.43          57.36          98.03
   0.04008              -13.52          18.71          58.59          45.15         -16.07          2.914          90.02          6.426         -95.38          57.34          98.04
   0.04294              -13.54          18.71          58.57          45.15         -16.06          2.917          89.95          6.436         -95.33          57.32          98.06
    0.0458              -13.55          18.71          58.54          45.15         -16.06           2.92          89.87          6.446         -95.27          57.31          98.07
   0.04866              -13.57           18.7          58.52          45.15         -16.05          2.923          89.79          6.458          -95.2          57.29          98.09
   0.05153               -13.6           18.7          58.49          45.15         -16.04          2.927          89.69          6.471         -95.13          57.27          98.11
   0.05439              -13.62           18.7          58.45          45.14         -16.03          2.931          89.59          6.485         -95.05          57.24          98.13
   0.05725              -13.65           18.7          58.42          45.14         -16.02          2.935          89.48          6.501         -94.97          57.22          98.16
   0.06011              -13.68           18.7          58.38          45.14         -16.01          2.939          89.36          6.518         -94.87          57.19          98.18
   0.06298              -13.71           18.7          58.34          45.14         -15.99          2.944          89.22          6.537         -94.77          57.16          98.21
   0.06584              -13.75           18.7          58.29          45.13         -15.98           2.95          89.07          6.558         -94.66          57.13          98.24
    0.0687              -13.79           18.7          58.24          45.13         -15.96          2.956          88.91          6.581         -94.53          57.09          98.28
   0.07156              -13.83           18.7          58.18          45.12         -15.94          2.963          88.72          6.607         -94.39          57.05          98.32
   0.07443              -13.88          18.69          58.11          45.12         -15.92          2.971          88.51          6.636         -94.23           57.0          98.36
